<svg class="rich-terminal" viewBox="0 0 1238 733.1999999999999" xmlns="http://www.w3.org/2000/svg">
    <!-- Generated with Rich https://www.textualize.io -->
    <style>

    @font-face {
        font-family: "Fira Code";
        src: local("FiraCode-Regular"),
                url("https://cdnjs.cloudflare.com/ajax/libs/firacode/6.2.0/woff2/FiraCode-Regular.woff2") format("woff2"),
                url("https://cdnjs.cloudflare.com/ajax/libs/firacode/6.2.0/woff/FiraCode-Regular.woff") format("woff");
        font-style: normal;
        font-weight: 400;
    }
    @font-face {
        font-family: "Fira Code";
        src: local("FiraCode-Bold"),
                url("https://cdnjs.cloudflare.com/ajax/libs/firacode/6.2.0/woff2/FiraCode-Bold.woff2") format("woff2"),
                url("https://cdnjs.cloudflare.com/ajax/libs/firacode/6.2.0/woff/FiraCode-Bold.woff") format("woff");
        font-style: bold;
        font-weight: 700;
    }

    .terminal-857983844-matrix {
        font-family: Fira Code, monospace;
        font-size: 20px;
        line-height: 24.4px;
        font-variant-east-asian: full-width;
    }

    .terminal-857983844-title {
        font-size: 18px;
        font-weight: bold;
        font-family: arial;
    }

    .terminal-857983844-r1 { fill: #c5c8c6 }
.terminal-857983844-r2 { fill: #dadada }
.terminal-857983844-r3 { fill: #4f4f4f }
.terminal-857983844-r4 { fill: #a4a4a4 }
.terminal-857983844-r5 { fill: #b4b4b4;font-weight: bold }
.terminal-857983844-r6 { fill: #505050 }
    </style>

    <defs>
    <clipPath id="terminal-857983844-clip-terminal">
      <rect x="0" y="0" width="1219.0" height="682.1999999999999" />
    </clipPath>
    <clipPath id="terminal-857983844-line-0">
    <rect x="0" y="1.5" width="1220" height="24.65"/>
            </clipPath>
<clipPath id="terminal-857983844-line-1">
    <rect x="0" y="25.9" width="1220" height="24.65"/>
            </clipPath>
<clipPath id="terminal-857983844-line-2">
    <rect x="0" y="50.3" width="1220" height="24.65"/>
            </clipPath>
<clipPath id="terminal-857983844-line-3">
    <rect x="0" y="74.7" width="1220" height="24.65"/>
            </clipPath>
<clipPath id="terminal-857983844-line-4">
    <rect x="0" y="99.1" width="1220" height="24.65"/>
            </clipPath>
<clipPath id="terminal-857983844-line-5">
    <rect x="0" y="123.5" width="1220" height="24.65"/>
            </clipPath>
<clipPath id="terminal-857983844-line-6">
    <rect x="0" y="147.9" width="1220" height="24.65"/>
            </clipPath>
<clipPath id="terminal-857983844-line-7">
    <rect x="0" y="172.3" width="1220" height="24.65"/>
            </clipPath>
<clipPath id="terminal-857983844-line-8">
    <rect x="0" y="196.7" width="1220" height="24.65"/>
            </clipPath>
<clipPath id="terminal-857983844-line-9">
    <rect x="0" y="221.1" width="1220" height="24.65"/>
            </clipPath>
<clipPath id="terminal-857983844-line-10">
    <rect x="0" y="245.5" width="1220" height="24.65"/>
            </clipPath>
<clipPath id="terminal-857983844-line-11">
    <rect x="0" y="269.9" width="1220" height="24.65"/>
            </clipPath>
<clipPath id="terminal-857983844-line-12">
    <rect x="0" y="294.3" width="1220" height="24.65"/>
            </clipPath>
<clipPath id="terminal-857983844-line-13">
    <rect x="0" y="318.7" width="1220" height="24.65"/>
            </clipPath>
<clipPath id="terminal-857983844-line-14">
    <rect x="0" y="343.1" width="1220" height="24.65"/>
            </clipPath>
<clipPath id="terminal-857983844-line-15">
    <rect x="0" y="367.5" width="1220" height="24.65"/>
            </clipPath>
<clipPath id="terminal-857983844-line-16">
    <rect x="0" y="391.9" width="1220" height="24.65"/>
            </clipPath>
<clipPath id="terminal-857983844-line-17">
    <rect x="0" y="416.3" width="1220" height="24.65"/>
            </clipPath>
<clipPath id="terminal-857983844-line-18">
    <rect x="0" y="440.7" width="1220" height="24.65"/>
            </clipPath>
<clipPath id="terminal-857983844-line-19">
    <rect x="0" y="465.1" width="1220" height="24.65"/>
            </clipPath>
<clipPath id="terminal-857983844-line-20">
    <rect x="0" y="489.5" width="1220" height="24.65"/>
            </clipPath>
<clipPath id="terminal-857983844-line-21">
    <rect x="0" y="513.9" width="1220" height="24.65"/>
            </clipPath>
<clipPath id="terminal-857983844-line-22">
    <rect x="0" y="538.3" width="1220" height="24.65"/>
            </clipPath>
<clipPath id="terminal-857983844-line-23">
    <rect x="0" y="562.7" width="1220" height="24.65"/>
            </clipPath>
<clipPath id="terminal-857983844-line-24">
    <rect x="0" y="587.1" width="1220" height="24.65"/>
            </clipPath>
<clipPath id="terminal-857983844-line-25">
    <rect x="0" y="611.5" width="1220" height="24.65"/>
            </clipPath>
<clipPath id="terminal-857983844-line-26">
    <rect x="0" y="635.9" width="1220" height="24.65"/>
            </clipPath>
    </defs>

    <rect fill="#292929" stroke="rgba(255,255,255,0.35)" stroke-width="1" x="1" y="1" width="1236" height="731.2" rx="8"/><text class="terminal-857983844-title" fill="#c5c8c6" text-anchor="middle" x="618" y="27">StockWatch</text>
            <g transform="translate(26,22)">
            <circle cx="0" cy="0" r="7" fill="#ff5f57"/>
            <circle cx="22" cy="0" r="7" fill="#febc2e"/>
            <circle cx="44" cy="0" r="7" fill="#28c840"/>
            </g>
        
    <g transform="translate(9, 41)" clip-path="url(#terminal-857983844-clip-terminal)">
    <rect fill="#2e2e2e" x="0" y="1.5" width="12.2" height="24.65" shape-rendering="crispEdges"/><rect fill="#2e2e2e" x="12.2" y="1.5" width="12.2" height="24.65" shape-rendering="crispEdges"/><rect fill="#2e2e2e" x="24.4" y="1.5" width="61" height="24.65" shape-rendering="crispEdges"/><rect fill="#2e2e2e" x="85.4" y="1.5" width="12.2" height="24.65" shape-rendering="crispEdges"/><rect fill="#2e2e2e" x="97.6" y="1.5" width="439.2" height="24.65" shape-rendering="crispEdges"/><rect fill="#2e2e2e" x="536.8" y="1.5" width="122" height="24.65" shape-rendering="crispEdges"/><rect fill="#2e2e2e" x="658.8" y="1.5" width="439.2" height="24.65" shape-rendering="crispEdges"/><rect fill="#2e2e2e" x="1098" y="1.5" width="12.2" height="24.65" shape-rendering="crispEdges"/><rect fill="#2e2e2e" x="1110.2" y="1.5" width="0" height="24.65" shape-rendering="crispEdges"/><rect fill="#2e2e2e" x="1110.2" y="1.5" width="97.6" height="24.65" shape-rendering="crispEdges"/><rect fill="#2e2e2e" x="1207.8" y="1.5" width="12.2" height="24.65" shape-rendering="crispEdges"/><rect fill="#1c1c1c" x="0" y="25.9" width="24.4" height="24.65" shape-rendering="crispEdges"/><rect fill="#1c1c1c" x="24.4" y="25.9" width="1171.2" height="24.65" shape-rendering="crispEdges"/><rect fill="#1c1c1c" x="1195.6" y="25.9" width="24.4" height="24.65" shape-rendering="crispEdges"/><rect fill="#1c1c1c" x="0" y="50.3" width="24.4" height="24.65" shape-rendering="crispEdges"/><rect fill="#1c1c1c" x="24.4" y="50.3" width="1171.2" height="24.65" shape-rendering="crispEdges"/><rect fill="#1c1c1c" x="1195.6" y="50.3" width="24.4" height="24.65" shape-rendering="crispEdges"/><rect fill="#1c1c1c" x="0" y="74.7" width="24.4" height="24.65" shape-rendering="crispEdges"/><rect fill="#1c1c1c" x="24.4" y="74.7" width="1171.2" height="24.65" shape-rendering="crispEdges"/><rect fill="#1c1c1c" x="1195.6" y="74.7" width="24.4" height="24.65" shape-rendering="crispEdges"/><rect fill="#1c1c1c" x="0" y="99.1" width="24.4" height="24.65" shape-rendering="crispEdges"/><rect fill="#1c1c1c" x="24.4" y="99.1" width="1171.2" height="24.65" shape-rendering="crispEdges"/><rect fill="#1c1c1c" x="1195.6" y="99.1" width="24.4" height="24.65" shape-rendering="crispEdges"/><rect fill="#1c1c1c" x="0" y="123.5" width="24.4" height="24.65" shape-rendering="crispEdges"/><rect fill="#1c1c1c" x="24.4" y="123.5" width="1171.2" height="24.65" shape-rendering="crispEdges"/><rect fill="#1c1c1c" x="1195.6" y="123.5" width="24.4" height="24.65" shape-rendering="crispEdges"/><rect fill="#1c1c1c" x="0" y="147.9" width="24.4" height="24.65" shape-rendering="crispEdges"/><rect fill="#1c1c1c" x="24.4" y="147.9" width="1171.2" height="24.65" shape-rendering="crispEdges"/><rect fill="#1c1c1c" x="1195.6" y="147.9" width="24.4" height="24.65" shape-rendering="crispEdges"/><rect fill="#1c1c1c" x="0" y="172.3" width="24.4" height="24.65" shape-rendering="crispEdges"/><rect fill="#1c1c1c" x="24.4" y="172.3" width="1171.2" height="24.65" shape-rendering="crispEdges"/><rect fill="#1c1c1c" x="1195.6" y="172.3" width="24.4" height="24.65" shape-rendering="crispEdges"/><rect fill="#1c1c1c" x="0" y="196.7" width="24.4" height="24.65" shape-rendering="crispEdges"/><rect fill="#1c1c1c" x="24.4" y="196.7" width="12.2" height="24.65" shape-rendering="crispEdges"/><rect fill="#1c1c1c" x="36.6" y="196.7" width="451.4" height="24.65" shape-rendering="crispEdges"/><rect fill="#1c1c1c" x="488" y="196.7" width="231.8" height="24.65" shape-rendering="crispEdges"/><rect fill="#1c1c1c" x="719.8" y="196.7" width="463.6" height="24.65" shape-rendering="crispEdges"/><rect fill="#1c1c1c" x="1183.4" y="196.7" width="12.2" height="24.65" shape-rendering="crispEdges"/><rect fill="#1c1c1c" x="1195.6" y="196.7" width="24.4" height="24.65" shape-rendering="crispEdges"/><rect fill="#1c1c1c" x="0" y="221.1" width="24.4" height="24.65" shape-rendering="crispEdges"/><rect fill="#1c1c1c" x="24.4" y="221.1" width="12.2" height="24.65" shape-rendering="crispEdges"/><rect fill="#1c1c1c" x="36.6" y="221.1" width="1146.8" height="24.65" shape-rendering="crispEdges"/><rect fill="#1c1c1c" x="1183.4" y="221.1" width="12.2" height="24.65" shape-rendering="crispEdges"/><rect fill="#1c1c1c" x="1195.6" y="221.1" width="24.4" height="24.65" shape-rendering="crispEdges"/><rect fill="#1c1c1c" x="0" y="245.5" width="24.4" height="24.65" shape-rendering="crispEdges"/><rect fill="#1c1c1c" x="24.4" y="245.5" width="12.2" height="24.65" shape-rendering="crispEdges"/><rect fill="#1c1c1c" x="36.6" y="245.5" width="24.4" height="24.65" shape-rendering="crispEdges"/><rect fill="#1c1c1c" x="61" y="245.5" width="475.8" height="24.65" shape-rendering="crispEdges"/><rect fill="#1c1c1c" x="536.8" y="245.5" width="134.2" height="24.65" shape-rendering="crispEdges"/><rect fill="#1c1c1c" x="671" y="245.5" width="488" height="24.65" shape-rendering="crispEdges"/><rect fill="#1c1c1c" x="1159" y="245.5" width="24.4" height="24.65" shape-rendering="crispEdges"/><rect fill="#1c1c1c" x="1183.4" y="245.5" width="12.2" height="24.65" shape-rendering="crispEdges"/><rect fill="#1c1c1c" x="1195.6" y="245.5" width="24.4" height="24.65" shape-rendering="crispEdges"/><rect fill="#1c1c1c" x="0" y="269.9" width="24.4" height="24.65" shape-rendering="crispEdges"/><rect fill="#1c1c1c" x="24.4" y="269.9" width="12.2" height="24.65" shape-rendering="crispEdges"/><rect fill="#1c1c1c" x="36.6" y="269.9" width="24.4" height="24.65" shape-rendering="crispEdges"/><rect fill="#1c1c1c" x="61" y="269.9" width="463.6" height="24.65" shape-rendering="crispEdges"/><rect fill="#1c1c1c" x="524.6" y="269.9" width="158.6" height="24.65" shape-rendering="crispEdges"/><rect fill="#1c1c1c" x="683.2" y="269.9" width="475.8" height="24.65" shape-rendering="crispEdges"/><rect fill="#1c1c1c" x="1159" y="269.9" width="24.4" height="24.65" shape-rendering="crispEdges"/><rect fill="#1c1c1c" x="1183.4" y="269.9" width="12.2" height="24.65" shape-rendering="crispEdges"/><rect fill="#1c1c1c" x="1195.6" y="269.9" width="24.4" height="24.65" shape-rendering="crispEdges"/><rect fill="#1c1c1c" x="0" y="294.3" width="24.4" height="24.65" shape-rendering="crispEdges"/><rect fill="#1c1c1c" x="24.4" y="294.3" width="12.2" height="24.65" shape-rendering="crispEdges"/><rect fill="#1c1c1c" x="36.6" y="294.3" width="24.4" height="24.65" shape-rendering="crispEdges"/><rect fill="#1c1c1c" x="61" y="294.3" width="475.8" height="24.65" shape-rendering="crispEdges"/><rect fill="#1c1c1c" x="536.8" y="294.3" width="134.2" height="24.65" shape-rendering="crispEdges"/><rect fill="#1c1c1c" x="671" y="294.3" width="488" height="24.65" shape-rendering="crispEdges"/><rect fill="#1c1c1c" x="1159" y="294.3" width="24.4" height="24.65" shape-rendering="crispEdges"/><rect fill="#1c1c1c" x="1183.4" y="294.3" width="12.2" height="24.65" shape-rendering="crispEdges"/><rect fill="#1c1c1c" x="1195.6" y="294.3" width="24.4" height="24.65" shape-rendering="crispEdges"/><rect fill="#1c1c1c" x="0" y="318.7" width="24.4" height="24.65" shape-rendering="crispEdges"/><rect fill="#1c1c1c" x="24.4" y="318.7" width="12.2" height="24.65" shape-rendering="crispEdges"/><rect fill="#1c1c1c" x="36.6" y="318.7" width="24.4" height="24.65" shape-rendering="crispEdges"/><rect fill="#1c1c1c" x="61" y="318.7" width="317.2" height="24.65" shape-rendering="crispEdges"/><rect fill="#1c1c1c" x="378.2" y="318.7" width="451.4" height="24.65" shape-rendering="crispEdges"/><rect fill="#1c1c1c" x="829.6" y="318.7" width="329.4" height="24.65" shape-rendering="crispEdges"/><rect fill="#1c1c1c" x="1159" y="318.7" width="24.4" height="24.65" shape-rendering="crispEdges"/><rect fill="#1c1c1c" x="1183.4" y="318.7" width="12.2" height="24.65" shape-rendering="crispEdges"/><rect fill="#1c1c1c" x="1195.6" y="318.7" width="24.4" height="24.65" shape-rendering="crispEdges"/><rect fill="#1c1c1c" x="0" y="343.1" width="24.4" height="24.65" shape-rendering="crispEdges"/><rect fill="#1c1c1c" x="24.4" y="343.1" width="12.2" height="24.65" shape-rendering="crispEdges"/><rect fill="#1c1c1c" x="36.6" y="343.1" width="1146.8" height="24.65" shape-rendering="crispEdges"/><rect fill="#1c1c1c" x="1183.4" y="343.1" width="12.2" height="24.65" shape-rendering="crispEdges"/><rect fill="#1c1c1c" x="1195.6" y="343.1" width="24.4" height="24.65" shape-rendering="crispEdges"/><rect fill="#1c1c1c" x="0" y="367.5" width="24.4" height="24.65" shape-rendering="crispEdges"/><rect fill="#1c1c1c" x="24.4" y="367.5" width="12.2" height="24.65" shape-rendering="crispEdges"/><rect fill="#1c1c1c" x="36.6" y="367.5" width="1146.8" height="24.65" shape-rendering="crispEdges"/><rect fill="#1c1c1c" x="1183.4" y="367.5" width="12.2" height="24.65" shape-rendering="crispEdges"/><rect fill="#1c1c1c" x="1195.6" y="367.5" width="24.4" height="24.65" shape-rendering="crispEdges"/><rect fill="#1c1c1c" x="0" y="391.9" width="24.4" height="24.65" shape-rendering="crispEdges"/><rect fill="#1c1c1c" x="24.4" y="391.9" width="1171.2" height="24.65" shape-rendering="crispEdges"/><rect fill="#1c1c1c" x="1195.6" y="391.9" width="24.4" height="24.65" shape-rendering="crispEdges"/><rect fill="#1c1c1c" x="0" y="416.3" width="24.4" height="24.65" shape-rendering="crispEdges"/><rect fill="#1c1c1c" x="24.4" y="416.3" width="48.8" height="24.65" shape-rendering="crispEdges"/><rect fill="#1c1c1c" x="73.2" y="416.3" width="1073.6" height="24.65" shape-rendering="crispEdges"/><rect fill="#1c1c1c" x="1146.8" y="416.3" width="48.8" height="24.65" shape-rendering="crispEdges"/><rect fill="#1c1c1c" x="1195.6" y="416.3" width="24.4" height="24.65" shape-rendering="crispEdges"/><rect fill="#1c1c1c" x="0" y="440.7" width="24.4" height="24.65" shape-rendering="crispEdges"/><rect fill="#1c1c1c" x="24.4" y="440.7" width="439.2" height="24.65" shape-rendering="crispEdges"/><rect fill="#1c1c1c" x="463.6" y="440.7" width="280.6" height="24.65" shape-rendering="crispEdges"/><rect fill="#1c1c1c" x="744.2" y="440.7" width="451.4" height="24.65" shape-rendering="crispEdges"/><rect fill="#1c1c1c" x="1195.6" y="440.7" width="24.4" height="24.65" shape-rendering="crispEdges"/><rect fill="#1c1c1c" x="0" y="465.1" width="24.4" height="24.65" shape-rendering="crispEdges"/><rect fill="#1c1c1c" x="24.4" y="465.1" width="1171.2" height="24.65" shape-rendering="crispEdges"/><rect fill="#1c1c1c" x="1195.6" y="465.1" width="24.4" height="24.65" shape-rendering="crispEdges"/><rect fill="#1c1c1c" x="0" y="489.5" width="24.4" height="24.65" shape-rendering="crispEdges"/><rect fill="#1c1c1c" x="24.4" y="489.5" width="1171.2" height="24.65" shape-rendering="crispEdges"/><rect fill="#1c1c1c" x="1195.6" y="489.5" width="24.4" height="24.65" shape-rendering="crispEdges"/><rect fill="#1c1c1c" x="0" y="513.9" width="24.4" height="24.65" shape-rendering="crispEdges"/><rect fill="#1c1c1c" x="24.4" y="513.9" width="1171.2" height="24.65" shape-rendering="crispEdges"/><rect fill="#1c1c1c" x="1195.6" y="513.9" width="24.4" height="24.65" shape-rendering="crispEdges"/><rect fill="#1c1c1c" x="0" y="538.3" width="24.4" height="24.65" shape-rendering="crispEdges"/><rect fill="#1c1c1c" x="24.4" y="538.3" width="1171.2" height="24.65" shape-rendering="crispEdges"/><rect fill="#1c1c1c" x="1195.6" y="538.3" width="24.4" height="24.65" shape-rendering="crispEdges"/><rect fill="#1c1c1c" x="0" y="562.7" width="24.4" height="24.65" shape-rendering="crispEdges"/><rect fill="#1c1c1c" x="24.4" y="562.7" width="1171.2" height="24.65" shape-rendering="crispEdges"/><rect fill="#1c1c1c" x="1195.6" y="562.7" width="24.4" height="24.65" shape-rendering="crispEdges"/><rect fill="#1c1c1c" x="0" y="587.1" width="24.4" height="24.65" shape-rendering="crispEdges"/><rect fill="#1c1c1c" x="24.4" y="587.1" width="1171.2" height="24.65" shape-rendering="crispEdges"/><rect fill="#1c1c1c" x="1195.6" y="587.1" width="24.4" height="24.65" shape-rendering="crispEdges"/><rect fill="#1c1c1c" x="0" y="611.5" width="24.4" height="24.65" shape-rendering="crispEdges"/><rect fill="#1c1c1c" x="24.4" y="611.5" width="1171.2" height="24.65" shape-rendering="crispEdges"/><rect fill="#1c1c1c" x="1195.6" y="611.5" width="24.4" height="24.65" shape-rendering="crispEdges"/><rect fill="#1c1c1c" x="0" y="635.9" width="24.4" height="24.65" shape-rendering="crispEdges"/><rect fill="#1c1c1c" x="24.4" y="635.9" width="1171.2" height="24.65" shape-rendering="crispEdges"/><rect fill="#1c1c1c" x="1195.6" y="635.9" width="24.4" height="24.65" shape-rendering="crispEdges"/><rect fill="#2e2e2e" x="0" y="660.3" width="36.6" height="24.65" shape-rendering="crispEdges"/><rect fill="#2e2e2e" x="36.6" y="660.3" width="109.8" height="24.65" shape-rendering="crispEdges"/><rect fill="#2e2e2e" x="146.4" y="660.3" width="36.6" height="24.65" shape-rendering="crispEdges"/><rect fill="#2e2e2e" x="183" y="660.3" width="97.6" height="24.65" shape-rendering="crispEdges"/><rect fill="#2e2e2e" x="280.6" y="660.3" width="36.6" height="24.65" shape-rendering="crispEdges"/><rect fill="#2e2e2e" x="317.2" y="660.3" width="73.2" height="24.65" shape-rendering="crispEdges"/><rect fill="#2e2e2e" x="390.4" y="660.3" width="36.6" height="24.65" shape-rendering="crispEdges"/><rect fill="#2e2e2e" x="427" y="660.3" width="97.6" height="24.65" shape-rendering="crispEdges"/><rect fill="#2e2e2e" x="524.6" y="660.3" width="36.6" height="24.65" shape-rendering="crispEdges"/><rect fill="#2e2e2e" x="561.2" y="660.3" width="122" height="24.65" shape-rendering="crispEdges"/><rect fill="#2e2e2e" x="683.2" y="660.3" width="36.6" height="24.65" shape-rendering="crispEdges"/><rect fill="#2e2e2e" x="719.8" y="660.3" width="122" height="24.65" shape-rendering="crispEdges"/><rect fill="#2e2e2e" x="841.8" y="660.3" width="36.6" height="24.65" shape-rendering="crispEdges"/><rect fill="#2e2e2e" x="878.4" y="660.3" width="158.6" height="24.65" shape-rendering="crispEdges"/><rect fill="#2e2e2e" x="1037" y="660.3" width="36.6" height="24.65" shape-rendering="crispEdges"/><rect fill="#2e2e2e" x="1073.6" y="660.3" width="12.2" height="24.65" shape-rendering="crispEdges"/><rect fill="#2e2e2e" x="1085.8" y="660.3" width="24.4" height="24.65" shape-rendering="crispEdges"/><rect fill="#2e2e2e" x="1110.2" y="660.3" width="24.4" height="24.65" shape-rendering="crispEdges"/><rect fill="#2e2e2e" x="1134.6" y="660.3" width="73.2" height="24.65" shape-rendering="crispEdges"/><rect fill="#2e2e2e" x="1207.8" y="660.3" width="12.2" height="24.65" shape-rendering="crispEdges"/>
    <g class="terminal-857983844-matrix">
    <text class="terminal-857983844-r2" x="12.2" y="20" textLength="12.2" clip-path="url(#terminal-857983844-line-0)">⭘</text><text class="terminal-857983844-r2" x="536.8" y="20" textLength="122" clip-path="url(#terminal-857983844-line-0)">StockWatch</text><text class="terminal-857983844-r1" x="1220" y="20" textLength="12.2" clip-path="url(#terminal-857983844-line-0)">
</text><text class="terminal-857983844-r1" x="1220" y="44.4" textLength="12.2" clip-path="url(#terminal-857983844-line-1)">
</text><text class="terminal-857983844-r1" x="1220" y="68.8" textLength="12.2" clip-path="url(#terminal-857983844-line-2)">
</text><text class="terminal-857983844-r1" x="1220" y="93.2" textLength="12.2" clip-path="url(#terminal-857983844-line-3)">
</text><text class="terminal-857983844-r1" x="1220" y="117.6" textLength="12.2" clip-path="url(#terminal-857983844-line-4)">
</text><text class="terminal-857983844-r1" x="1220" y="142" textLength="12.2" clip-path="url(#terminal-857983844-line-5)">
</text><text class="terminal-857983844-r1" x="1220" y="166.4" textLength="12.2" clip-path="url(#terminal-857983844-line-6)">
</text><text class="terminal-857983844-r1" x="1220" y="190.8" textLength="12.2" clip-path="url(#terminal-857983844-line-7)">
</text><text class="terminal-857983844-r3" x="24.4" y="215.2" textLength="12.2" clip-path="url(#terminal-857983844-line-8)">╭</text><text class="terminal-857983844-r3" x="36.6" y="215.2" textLength="451.4" clip-path="url(#terminal-857983844-line-8)">─────────────────────────────────────</text><text class="terminal-857983844-r3" x="488" y="215.2" textLength="231.8" clip-path="url(#terminal-857983844-line-8)">&#160;Resumo&#160;do&#160;estoque&#160;</text><text class="terminal-857983844-r3" x="719.8" y="215.2" textLength="463.6" clip-path="url(#terminal-857983844-line-8)">──────────────────────────────────────</text><text class="terminal-857983844-r3" x="1183.4" y="215.2" textLength="12.2" clip-path="url(#terminal-857983844-line-8)">╮</text><text class="terminal-857983844-r1" x="1220" y="215.2" textLength="12.2" clip-path="url(#terminal-857983844-line-8)">
</text><text class="terminal-857983844-r3" x="24.4" y="239.6" textLength="12.2" clip-path="url(#terminal-857983844-line-9)">│</text><text class="terminal-857983844-r3" x="1183.4" y="239.6" textLength="12.2" clip-path="url(#terminal-857983844-line-9)">│</text><text class="terminal-857983844-r1" x="1220" y="239.6" textLength="12.2" clip-path="url(#terminal-857983844-line-9)">
</text><text class="terminal-857983844-r3" x="24.4" y="264" textLength="12.2" clip-path="url(#terminal-857983844-line-10)">│</text><text class="terminal-857983844-r2" x="536.8" y="264" textLength="134.2" clip-path="url(#terminal-857983844-line-10)">Produtos:&#160;6</text><text class="terminal-857983844-r3" x="1183.4" y="264" textLength="12.2" clip-path="url(#terminal-857983844-line-10)">│</text><text class="terminal-857983844-r1" x="1220" y="264" textLength="12.2" clip-path="url(#terminal-857983844-line-10)">
</text><text class="terminal-857983844-r3" x="24.4" y="288.4" textLength="12.2" clip-path="url(#terminal-857983844-line-11)">│</text><text class="terminal-857983844-r2" x="524.6" y="288.4" textLength="158.6" clip-path="url(#terminal-857983844-line-11)">Unidades:&#160;150</text><text class="terminal-857983844-r3" x="1183.4" y="288.4" textLength="12.2" clip-path="url(#terminal-857983844-line-11)">│</text><text class="terminal-857983844-r1" x="1220" y="288.4" textLength="12.2" clip-path="url(#terminal-857983844-line-11)">
</text><text class="terminal-857983844-r3" x="24.4" y="312.8" textLength="12.2" clip-path="url(#terminal-857983844-line-12)">│</text><text class="terminal-857983844-r2" x="536.8" y="312.8" textLength="134.2" clip-path="url(#terminal-857983844-line-12)">Vencidos:&#160;1</text><text class="terminal-857983844-r3" x="1183.4" y="312.8" textLength="12.2" clip-path="url(#terminal-857983844-line-12)">│</text><text class="terminal-857983844-r1" x="1220" y="312.8" textLength="12.2" clip-path="url(#terminal-857983844-line-12)">
</text><text class="terminal-857983844-r3" x="24.4" y="337.2" textLength="12.2" clip-path="url(#terminal-857983844-line-13)">│</text><text class="terminal-857983844-r2" x="378.2" y="337.2" textLength="451.4" clip-path="url(#terminal-857983844-line-13)">Perto&#160;de&#160;vencer:&#160;3&#160;(próximos&#160;30&#160;dias)</text><text class="terminal-857983844-r3" x="1183.4" y="337.2" textLength="12.2" clip-path="url(#terminal-857983844-line-13)">│</text><text class="terminal-857983844-r1" x="1220" y="337.2" textLength="12.2" clip-path="url(#terminal-857983844-line-13)">
</text><text class="terminal-857983844-r3" x="24.4" y="361.6" textLength="12.2" clip-path="url(#terminal-857983844-line-14)">│</text><text class="terminal-857983844-r3" x="1183.4" y="361.6" textLength="12.2" clip-path="url(#terminal-857983844-line-14)">│</text><text class="terminal-857983844-r1" x="1220" y="361.6" textLength="12.2" clip-path="url(#terminal-857983844-line-14)">
</text><text class="terminal-857983844-r3" x="24.4" y="386" textLength="12.2" clip-path="url(#terminal-857983844-line-15)">╰</text><text class="terminal-857983844-r3" x="36.6" y="386" textLength="1146.8" clip-path="url(#terminal-857983844-line-15)">──────────────────────────────────────────────────────────────────────────────────────────────</text><text class="terminal-857983844-r3" x="1183.4" y="386" textLength="12.2" clip-path="url(#terminal-857983844-line-15)">╯</text><text class="terminal-857983844-r1" x="1220" y="386" textLength="12.2" clip-path="url(#terminal-857983844-line-15)">
</text><text class="terminal-857983844-r1" x="1220" y="410.4" textLength="12.2" clip-path="url(#terminal-857983844-line-16)">
</text><text class="terminal-857983844-r4" x="73.2" y="434.8" textLength="1073.6" clip-path="url(#terminal-857983844-line-17)">p&#160;produtos&#160;&#160;·&#160;&#160;e&#160;entrada&#160;&#160;·&#160;&#160;s&#160;saída&#160;&#160;·&#160;&#160;t&#160;estoque&#160;&#160;·&#160;&#160;v&#160;validades&#160;&#160;·&#160;&#160;m&#160;histórico&#160;&#160;·&#160;&#160;c</text><text class="terminal-857983844-r1" x="1220" y="434.8" textLength="12.2" clip-path="url(#terminal-857983844-line-17)">
</text><text class="terminal-857983844-r4" x="463.6" y="459.2" textLength="280.6" clip-path="url(#terminal-857983844-line-18)">configuração&#160;&#160;·&#160;&#160;q&#160;sair</text><text class="terminal-857983844-r1" x="1220" y="459.2" textLength="12.2" clip-path="url(#terminal-857983844-line-18)">
</text><text class="terminal-857983844-r1" x="1220" y="483.6" textLength="12.2" clip-path="url(#terminal-857983844-line-19)">
</text><text class="terminal-857983844-r1" x="1220" y="508" textLength="12.2" clip-path="url(#terminal-857983844-line-20)">
</text><text class="terminal-857983844-r1" x="1220" y="532.4" textLength="12.2" clip-path="url(#terminal-857983844-line-21)">
</text><text class="terminal-857983844-r1" x="1220" y="556.8" textLength="12.2" clip-path="url(#terminal-857983844-line-22)">
</text><text class="terminal-857983844-r1" x="1220" y="581.2" textLength="12.2" clip-path="url(#terminal-857983844-line-23)">
</text><text class="terminal-857983844-r1" x="1220" y="605.6" textLength="12.2" clip-path="url(#terminal-857983844-line-24)">
</text><text class="terminal-857983844-r1" x="1220" y="630" textLength="12.2" clip-path="url(#terminal-857983844-line-25)">
</text><text class="terminal-857983844-r1" x="1220" y="654.4" textLength="12.2" clip-path="url(#terminal-857983844-line-26)">
</text><text class="terminal-857983844-r5" x="0" y="678.8" textLength="36.6" clip-path="url(#terminal-857983844-line-27)">&#160;p&#160;</text><text class="terminal-857983844-r2" x="36.6" y="678.8" textLength="109.8" clip-path="url(#terminal-857983844-line-27)">Produtos&#160;</text><text class="terminal-857983844-r5" x="146.4" y="678.8" textLength="36.6" clip-path="url(#terminal-857983844-line-27)">&#160;e&#160;</text><text class="terminal-857983844-r2" x="183" y="678.8" textLength="97.6" clip-path="url(#terminal-857983844-line-27)">Entrada&#160;</text><text class="terminal-857983844-r5" x="280.6" y="678.8" textLength="36.6" clip-path="url(#terminal-857983844-line-27)">&#160;s&#160;</text><text class="terminal-857983844-r2" x="317.2" y="678.8" textLength="73.2" clip-path="url(#terminal-857983844-line-27)">Saída&#160;</text><text class="terminal-857983844-r5" x="390.4" y="678.8" textLength="36.6" clip-path="url(#terminal-857983844-line-27)">&#160;t&#160;</text><text class="terminal-857983844-r2" x="427" y="678.8" textLength="97.6" clip-path="url(#terminal-857983844-line-27)">Estoque&#160;</text><text class="terminal-857983844-r5" x="524.6" y="678.8" textLength="36.6" clip-path="url(#terminal-857983844-line-27)">&#160;v&#160;</text><text class="terminal-857983844-r2" x="561.2" y="678.8" textLength="122" clip-path="url(#terminal-857983844-line-27)">Validades&#160;</text><text class="terminal-857983844-r5" x="683.2" y="678.8" textLength="36.6" clip-path="url(#terminal-857983844-line-27)">&#160;m&#160;</text><text class="terminal-857983844-r2" x="719.8" y="678.8" textLength="122" clip-path="url(#terminal-857983844-line-27)">Histórico&#160;</text><text class="terminal-857983844-r5" x="841.8" y="678.8" textLength="36.6" clip-path="url(#terminal-857983844-line-27)">&#160;c&#160;</text><text class="terminal-857983844-r2" x="878.4" y="678.8" textLength="158.6" clip-path="url(#terminal-857983844-line-27)">Configuração&#160;</text><text class="terminal-857983844-r5" x="1037" y="678.8" textLength="36.6" clip-path="url(#terminal-857983844-line-27)">&#160;q&#160;</text><text class="terminal-857983844-r6" x="1073.6" y="678.8" textLength="12.2" clip-path="url(#terminal-857983844-line-27)">▏</text><text class="terminal-857983844-r5" x="1085.8" y="678.8" textLength="24.4" clip-path="url(#terminal-857983844-line-27)">^p</text><text class="terminal-857983844-r2" x="1110.2" y="678.8" textLength="24.4" clip-path="url(#terminal-857983844-line-27)">&#160;p</text><text class="terminal-857983844-r2" x="1134.6" y="678.8" textLength="73.2" clip-path="url(#terminal-857983844-line-27)">alette</text>
    </g>
    </g>
</svg>
